<mxfile host="65bd71144e">
    <diagram id="dr_Xoo4uo30Bpkdkpc5E" name="第 1 页">
        <mxGraphModel dx="613" dy="316" grid="0" gridSize="10" guides="1" tooltips="1" connect="1" arrows="0" fold="1" page="1" pageScale="1" pageWidth="3300" pageHeight="2339" background="#000000" math="0" shadow="0">
            <root>
                <mxCell id="0"/>
                <mxCell id="1" parent="0"/>
                <mxCell id="2" value="scene" style="rounded=0;whiteSpace=wrap;html=1;fillColor=#003366;" vertex="1" parent="1">
                    <mxGeometry x="440" y="160" width="200" height="200" as="geometry"/>
                </mxCell>
                <mxCell id="3" value="" style="endArrow=classic;startArrow=classic;html=1;" edge="1" parent="1">
                    <mxGeometry width="50" height="50" relative="1" as="geometry">
                        <mxPoint x="440" y="150" as="sourcePoint"/>
                        <mxPoint x="640" y="150" as="targetPoint"/>
                    </mxGeometry>
                </mxCell>
                <mxCell id="14" value="&lt;span style=&quot;font-size: 12px; background-color: rgb(0, 0, 0);&quot;&gt;800&lt;/span&gt;" style="edgeLabel;html=1;align=center;verticalAlign=middle;resizable=0;points=[];fontSize=8;" vertex="1" connectable="0" parent="3">
                    <mxGeometry x="0.06" relative="1" as="geometry">
                        <mxPoint as="offset"/>
                    </mxGeometry>
                </mxCell>
                <mxCell id="5" value="&lt;p style=&quot;line-height: 100%;&quot;&gt;&lt;font style=&quot;font-size: 8px;&quot;&gt;viewport&lt;/font&gt;&lt;/p&gt;" style="rounded=0;whiteSpace=wrap;html=1;fillColor=#006600;shadow=0;aspect=fixed;labelBorderColor=none;" vertex="1" parent="1">
                    <mxGeometry x="592" y="176" width="32" height="32" as="geometry"/>
                </mxCell>
                <mxCell id="7" value="" style="endArrow=classic;startArrow=classic;html=1;" edge="1" parent="1">
                    <mxGeometry width="50" height="50" relative="1" as="geometry">
                        <mxPoint x="650" y="160" as="sourcePoint"/>
                        <mxPoint x="650" y="360" as="targetPoint"/>
                    </mxGeometry>
                </mxCell>
                <mxCell id="15" value="&lt;span style=&quot;background-color: rgb(0, 0, 0);&quot;&gt;800&lt;/span&gt;" style="edgeLabel;align=center;verticalAlign=middle;resizable=0;points=[];fontSize=12;labelBackgroundColor=default;horizontal=0;html=1;" vertex="1" connectable="0" parent="7">
                    <mxGeometry x="-0.01" y="2" relative="1" as="geometry">
                        <mxPoint x="-2" as="offset"/>
                    </mxGeometry>
                </mxCell>
                <mxCell id="12" value="160" style="endArrow=classic;startArrow=classic;html=1;fontSize=8;labelBackgroundColor=#013366;endSize=2;startSize=2;" edge="1" parent="1">
                    <mxGeometry width="50" height="50" relative="1" as="geometry">
                        <mxPoint x="592" y="217" as="sourcePoint"/>
                        <mxPoint x="624" y="217" as="targetPoint"/>
                    </mxGeometry>
                </mxCell>
                <mxCell id="16" value="" style="endArrow=classic;startArrow=classic;html=1;labelBackgroundColor=#013366;fontSize=12;fontColor=#013366;" edge="1" parent="1">
                    <mxGeometry width="50" height="50" relative="1" as="geometry">
                        <mxPoint x="440" y="217" as="sourcePoint"/>
                        <mxPoint x="592" y="217" as="targetPoint"/>
                    </mxGeometry>
                </mxCell>
                <mxCell id="17" value="&lt;font style=&quot;background-color: rgb(1, 51, 102);&quot; color=&quot;#f0f0f0&quot;&gt;560&lt;/font&gt;" style="edgeLabel;html=1;align=center;verticalAlign=middle;resizable=0;points=[];fontSize=12;fontColor=#013366;" vertex="1" connectable="0" parent="16">
                    <mxGeometry x="0.108" y="2" relative="1" as="geometry">
                        <mxPoint y="1" as="offset"/>
                    </mxGeometry>
                </mxCell>
                <mxCell id="18" value="" style="endArrow=classic;startArrow=classic;html=1;labelBackgroundColor=#013366;fontSize=12;fontColor=#013366;" edge="1" parent="1">
                    <mxGeometry width="50" height="50" relative="1" as="geometry">
                        <mxPoint x="592" y="217" as="sourcePoint"/>
                        <mxPoint x="592" y="360" as="targetPoint"/>
                    </mxGeometry>
                </mxCell>
                <mxCell id="19" value="&lt;font style=&quot;background-color: rgb(1, 51, 102);&quot; color=&quot;#f0f0f0&quot;&gt;560&lt;/font&gt;" style="edgeLabel;html=1;align=center;verticalAlign=middle;resizable=0;points=[];fontSize=12;fontColor=#013366;" vertex="1" connectable="0" parent="18">
                    <mxGeometry x="0.108" y="2" relative="1" as="geometry">
                        <mxPoint y="1" as="offset"/>
                    </mxGeometry>
                </mxCell>
                <mxCell id="20" value="" style="shape=waypoint;sketch=0;fillStyle=solid;size=6;pointerEvents=1;points=[];fillColor=none;resizable=0;rotatable=0;perimeter=centerPerimeter;snapToPoint=1;shadow=0;labelBackgroundColor=#013366;labelBorderColor=none;fontSize=1;fontColor=#f0f0f0;html=1;strokeColor=#ec0909;spacing=0;strokeWidth=0;" vertex="1" parent="1">
                    <mxGeometry x="607" y="173" width="20" height="20" as="geometry"/>
                </mxCell>
                <mxCell id="21" value="120" style="endArrow=classic;startArrow=classic;html=1;fontSize=8;labelBackgroundColor=#013366;endSize=1;startSize=1;align=center;" edge="1" parent="1">
                    <mxGeometry x="-0.023" width="50" height="50" relative="1" as="geometry">
                        <mxPoint x="592" y="169" as="sourcePoint"/>
                        <mxPoint x="616" y="169" as="targetPoint"/>
                        <mxPoint as="offset"/>
                    </mxGeometry>
                </mxCell>
            </root>
        </mxGraphModel>
    </diagram>
</mxfile>